# xmcd
#
# Track frame offsets: 
#        182
#        14007
#        28485
#        42605
#        58672
#        72797
#        86412
#        100420
#        111237
#        124560
#        140000
#        154937
#        167512
#        178912
#        191867
#        205152
#        218455
#        230650
#
# Disc length: 3254 seconds
#
# Revision: 4
# Processed by: cddbd v1.5.2PL0 Copyright (c) Steve Scherf et al.
# Submitted via: ExactAudioCopyFreeDBPlugin 1.0
#
DISCID=0e0cb412
DTITLE=Tampa Red - The Guitar Wizard
DYEAR=1900
DGENRE=Blues
TTITLE0=Grievin' And Worryin' Blues
TTITLE1=Witchin' Hour Blues
TTITLE2=King Fish Blues
TTITLE3=You Missed A Good Man
TTITLE4=When The One You Love Is Gone
TTITLE5=Deceitful Friend Blues
TTITLE6=Delta Woman Blues
TTITLE7=Travel On
TTITLE8=Lone With A Feeling
TTITLE9=Why Should I Care?
TTITLE10=Got To Leave My Woman
TTITLE11=Bessemer Blues
TTITLE12=It Hurst Me Too
TTITLE13=Anna Lou Blues
TTITLE14=Hard Road Blues
TTITLE15=It's a Low Down Shame
TTITLE16=So Far So Good
TTITLE17=She's Lone Crazy
EXTD=
EXTT0=
EXTT1=
EXTT2=
EXTT3=
EXTT4=
EXTT5=
EXTT6=
EXTT7=
EXTT8=
EXTT9=
EXTT10=
EXTT11=
EXTT12=
EXTT13=
EXTT14=
EXTT15=
EXTT16=
EXTT17=
PLAYORDER=
